<svg width="21" height="24" viewBox="0 0 21 24" fill="none" xmlns="http://www.w3.org/2000/svg">
<path d="M8.38916 10.8999V17.4998" stroke="black" stroke-width="2" stroke-linecap="round" stroke-linejoin="round"/>
<path d="M12.6113 10.8999V17.4998" stroke="black" stroke-width="2" stroke-linecap="round" stroke-linejoin="round"/>
<path d="M17.8891 5.3999V20.7998C17.8891 21.3832 17.6667 21.9428 17.2708 22.3554C16.8749 22.768 16.3379 22.9998 15.778 22.9998H5.22244C4.66254 22.9998 4.12557 22.768 3.72966 22.3554C3.33375 21.9428 3.11133 21.3832 3.11133 20.7998V5.3999" stroke="black" stroke-width="2" stroke-linecap="round" stroke-linejoin="round"/>
<path d="M1 5.3999H20" stroke="black" stroke-width="2" stroke-linecap="round" stroke-linejoin="round"/>
<path d="M6.27783 5.39996V3.19998C6.27783 2.61651 6.50025 2.05694 6.89616 1.64436C7.29207 1.23178 7.82904 1 8.38894 1H12.6112C13.1711 1 13.708 1.23178 14.1039 1.64436C14.4999 2.05694 14.7223 2.61651 14.7223 3.19998V5.39996" stroke="black" stroke-width="2" stroke-linecap="round" stroke-linejoin="round"/>
</svg>
