<svg width="258" height="143" viewBox="0 0 258 143" fill="none" xmlns="http://www.w3.org/2000/svg">
<path d="M160.879 142.018C158.646 140.017 158.557 137.035 160.559 131.303C163.601 122.591 168.836 113.751 179.435 99.4276L183.869 93.4349L183.143 92.0126C182.327 90.4118 180.37 88.6061 179.452 88.6061C177.214 88.6061 172.508 92.5805 169.949 96.633C167.69 100.21 166.165 101.453 164.037 101.453C162.587 101.453 162.289 101.319 161.991 100.534C161.528 99.3162 162.008 97.7534 163.522 95.5534C165.471 92.7201 169.648 84.2297 171.122 80.1045C173.107 74.551 173.817 70.6594 173.847 65.1796C173.869 61.192 173.756 60.2211 173.122 58.9451C172.657 58.0082 172.068 57.3904 171.574 57.3198C169.787 57.0648 166.944 60.8152 163.251 68.2968C161.358 72.1311 160.772 72.6076 159.506 71.3417C157.435 69.2706 162.582 57.0107 166.671 54.2762C171.901 50.7778 177.329 52.1924 179.416 57.5978C180.563 60.5686 180.807 67.1744 179.941 71.7919C179.435 74.4944 177.527 81.1308 176.439 83.9775C176.306 84.3246 176.895 84.4503 178.66 84.4519C181.77 84.4547 183.416 84.9337 185.78 86.5246L187.704 87.8191L189.049 85.7163C191 82.6662 193.137 78.6172 194.506 75.3767C195.521 72.9748 195.692 72.1277 195.637 69.7664C195.551 66.0474 196.153 63.287 197.776 59.9605C199.309 56.8175 201.767 54.0769 203.835 53.2052C205.824 52.3671 208.713 52.4409 210.547 53.3766C212.519 54.3826 215.313 57.3895 216.557 59.8454C218.23 63.1461 218.788 66.0245 218.819 71.5085C218.834 74.262 218.985 76.5149 219.154 76.515C219.661 76.515 223.56 74.5269 223.913 74.0883C224.093 73.8644 224.445 71.3061 224.695 68.4032C225.184 62.7225 225.961 58.0477 226.621 56.8148C227.464 55.2383 231.797 54.4562 231.922 55.8579C231.944 56.1012 231.928 60.5608 231.888 65.7682C231.848 70.9756 231.939 76.0649 232.091 77.0779C232.36 78.8732 232.408 78.744 234.008 71.9551C235.833 64.2064 238.379 56.4389 241.437 49.283C243.918 43.4764 245.395 41.2512 247.472 40.1917C248.864 39.4817 249.194 39.445 250.381 39.8684C252.769 40.7204 254.498 42.2073 255.209 44.0202C256.363 46.9643 256.06 53.4877 254.235 64.9907C250.896 86.0295 250.472 94.9672 252.489 101.758C253.22 104.222 255.489 106.743 256.976 106.743C257.874 106.743 257.989 106.874 257.885 107.779C257.721 109.194 256.107 109.907 253.125 109.881C251.19 109.864 250.426 109.659 248.987 108.769C246.844 107.444 246.11 106.251 245.042 102.362C244.321 99.7376 244.221 98.4108 244.22 91.4399C244.219 82.7671 244.704 77.3751 246.817 62.6249C247.543 57.555 248.125 51.9821 248.118 50.1559C248.107 47.1032 248.062 46.911 247.522 47.6097C246.31 49.1789 243.51 55.5235 241.893 60.3621C240.609 64.2042 234.411 87.7866 232.864 94.7167C232.563 96.0638 230.462 96.8269 228.87 96.1673C226.763 95.2945 225.234 90.1893 224.607 81.9341L224.172 76.2067L222.634 77.2645C221.789 77.8463 220.478 78.5807 219.722 78.8966C218.462 79.4231 218.311 79.655 217.905 81.677C216.685 87.7685 214.934 92.3893 212.77 95.2255C210.031 98.8172 204.997 99.0214 201.583 95.6793C198.828 92.9823 196.86 87.6979 196.137 81.0575C195.959 79.4247 195.763 78.7958 195.548 79.1683C195.371 79.4754 193.868 82.011 192.208 84.8029L189.19 89.8791L190.206 92.3598C191.118 94.5855 191.222 95.3068 191.213 99.3747C191.202 104.623 190.128 109.972 187.634 117.204C184.693 125.733 181.49 131.108 176.174 136.433C171.971 140.643 168.26 142.704 164.444 142.947C162.276 143.085 161.986 143.01 160.879 142.018ZM166.853 139.543C169.179 138.417 172.749 134.657 174.937 131.027C180.325 122.088 184.672 108.13 184.636 99.8821L184.621 96.3519L183.532 97.6246C181.382 100.139 174.614 109.669 171.69 114.3C164.696 125.379 160.296 137.313 162.311 139.745C163.025 140.608 164.818 140.529 166.853 139.543ZM208.974 92.8165C209.818 91.884 210.939 88.6163 211.456 85.5833C211.686 84.2325 211.958 82.7447 212.061 82.2772C212.243 81.4517 212.163 81.427 209.279 81.427C207.646 81.427 205.517 81.1886 204.549 80.8972L202.788 80.3674V81.4222C202.788 82.9272 203.844 88.2893 204.513 90.1877C205.574 93.1942 207.568 94.3696 208.974 92.8165ZM212.713 75.0036C213.08 71.4045 212.706 64.5642 211.991 61.82C210.935 57.764 209.018 54.9777 207.285 54.9777C206.298 54.9777 204.009 57.1032 203.121 58.8455C201.039 62.9256 200.235 70.073 201.655 71.8777C202.07 72.4061 202.41 73.2992 202.41 73.8625C202.41 75.6309 204.769 77.0271 208.768 77.6262C212.451 78.1779 212.384 78.2227 212.713 75.0036ZM77.4513 116.774C71.9925 115.068 67.5805 109.899 64.7027 101.837C62.1413 94.6614 59.7034 83.158 58.6555 73.3033C57.7895 65.1583 57.6771 64.3905 57.3778 64.5755C57.2298 64.6669 54.9878 65.0193 52.3955 65.3586C49.8032 65.6978 46.8164 66.1429 45.7581 66.3476L43.8339 66.7198L42.2114 70.5783C36.4287 84.3304 29.4883 95.697 22.7673 102.423C19.1125 106.08 17.1382 107.268 13.6379 107.915C11.3644 108.336 8.21405 107.917 6.33508 106.946C4.6812 106.09 2.70071 103.907 1.75499 101.896C-3.37034 90.9978 3.43346 64.8346 13.0772 58.3578C15.1492 56.9663 16.8461 56.4917 19.7216 56.4995C25.0761 56.5142 28.2232 59.9445 28.2232 65.7663V68.1472L30.3958 66.8374C32.1266 65.7938 36.0733 64.3384 40.5338 63.0987C41.8743 62.7262 51.6009 32.9608 58.062 9.45871C59.3172 4.8931 60.6043 0.897369 60.9224 0.579314C61.3216 0.180109 62.2529 0.00103147 63.9297 0.00103147C67.862 0.00103147 67.7648 -0.306755 66.9938 9.71118C66.6371 14.3458 66.0948 20.9432 65.7886 24.3721C65.4824 27.8011 65.1267 36.6852 64.998 44.1146C64.7966 55.7509 64.8398 57.6227 65.3103 57.6227C66.154 57.6227 70.2009 54.2026 71.3508 52.5177C72.7388 50.4841 73.5693 47.7012 73.9127 43.9334C74.239 40.3536 74.7132 39.2137 76.0116 38.8878C78.3497 38.301 80.7483 40.211 81.2883 43.0896C81.9869 46.8131 79.0351 53.7252 75.305 57.1007C73.125 59.0735 67.024 62.5347 65.7265 62.5347C65.2227 62.5347 65.1796 63.0571 65.4068 66.4076C66.6743 85.0939 71.4301 103.579 76.5765 109.822C81.1135 115.325 86.8283 114.67 91.0006 108.169C91.825 106.884 92.4052 106.365 93.017 106.365C94.4204 106.365 94.9096 107.279 94.4059 108.96C93.3736 112.405 89.9762 115.662 86.2641 116.764C83.9747 117.444 79.6109 117.449 77.4513 116.774ZM16.5099 102.873C18.9968 101.706 23.9592 96.5634 26.813 92.1956C30.8696 85.987 39.2917 68.9431 38.6301 68.2814C38.31 67.9614 34.1721 69.8645 31.8796 71.3862C30.7351 72.1459 27.9982 74.6491 25.7976 76.9488C22.1425 80.7687 21.7069 81.1078 20.7598 80.8701C20.1897 80.727 19.6535 80.5402 19.5682 80.4549C19.483 80.3697 20.0332 78.4707 20.7909 76.2349C22.6036 70.8859 23.2988 67.7655 23.3056 64.9472C23.315 61.0607 21.3885 59.6319 18.5074 61.3886C15.0886 63.4731 10.3246 73.0547 8.53171 81.4521C7.3949 86.7764 7.27974 96.4605 8.31771 99.4478C9.91409 104.042 12.0846 104.95 16.5099 102.873ZM53.7041 61.0877L57.4589 60.4565L57.3629 52.3328C57.2743 44.8353 57.8595 26.0608 58.2639 23.4275C58.6689 20.7901 57.5575 24.0672 54.1502 35.5574C51.1635 45.6292 46.9521 58.7032 45.7808 61.5393C45.5094 62.1966 45.6407 62.2265 47.7195 61.9816C48.9459 61.8371 51.639 61.4349 53.7041 61.0877ZM130.279 113.682C127.513 110.663 126.009 107.697 125.788 104.82L125.626 102.708L123.227 104.317C121.823 105.258 119.98 106.115 118.783 106.383C116.208 106.959 112.722 106.712 110.866 105.82L109.438 105.135L110.4 103.955C117.753 94.9398 121.629 85.8026 125.667 67.967C128.018 57.5813 129.571 53.6625 131.957 52.0995C134.587 50.3761 137.431 54.8849 139.55 64.1374C144.501 85.7542 148.104 94.7043 155.461 103.655L156.688 105.147L155.272 105.85C154.227 106.37 153.019 106.554 150.645 106.554C146.962 106.554 144.717 105.853 142.169 103.908L140.541 102.666L140.346 104.82C140.082 107.727 138.278 111.19 135.582 113.962C134.391 115.187 133.227 116.189 132.996 116.189C132.765 116.189 131.542 115.061 130.279 113.682ZM94.9131 95.4509C89.2681 93.9817 85.7752 87.624 84.0947 75.7593C83.4479 71.1926 83.4322 52.4896 84.0707 47.2319C86.0485 30.9479 90.3478 16.6594 95.295 9.92873C96.6898 8.03107 98.9597 6.61335 100.603 6.61335C102.206 6.61335 104.092 7.72108 105.015 9.20404C105.797 10.4623 105.869 11.0195 105.851 15.6817C105.834 20.1355 105.681 21.3643 104.646 25.3682C102.374 34.1473 98.295 43.4003 93.4687 50.7199L90.9457 54.5462L90.946 61.6577C90.9465 73.0481 91.8271 79.9613 93.9937 85.5833C95.3626 89.1355 97.0295 91.251 98.4595 91.251C101.303 91.251 103.642 85.9955 107.173 71.6704C108.009 68.2786 108.791 65.3456 108.91 65.1526C109.243 64.6145 110.214 64.7359 110.448 65.3448C110.678 65.9452 108.025 78.2648 106.624 83.1003C104.667 89.8521 102.799 93.4282 100.548 94.7302C99.1727 95.5257 96.5095 95.8664 94.9131 95.4509ZM93.8691 44.3036C98.9536 35.299 103.517 21.3974 103.574 14.7371C103.625 8.81781 102.213 8.20846 99.8707 13.1389C97.1262 18.9154 94.6866 28.1875 93.0109 39.21C92.4982 42.583 92.0174 45.7252 91.9424 46.1928C91.7036 47.6832 92.2799 47.1181 93.8691 44.3036ZM114.379 53.8151C111.603 52.5559 108.811 50.1976 106.227 46.93C104.888 45.2368 103.793 43.6483 103.793 43.4001C103.793 42.9148 108.38 41.3075 111.651 40.6463C118.586 39.2449 124.031 41.7072 126.036 47.1516C127.131 50.1263 127.068 50.5782 125.368 51.9244C121.922 54.6542 117.794 55.3643 114.379 53.8151ZM143.643 53.8421C141.496 52.7711 139.31 50.8865 139.31 50.1068C139.31 49.744 139.581 48.5237 139.912 47.3949C140.374 45.8218 140.984 44.8853 142.524 43.3835C146.347 39.6561 151.018 39.2738 159.43 41.9998C161.041 42.5217 162.359 43.0861 162.359 43.254C162.359 43.8666 158.77 48.4178 156.769 50.3431C153.902 53.1008 151.151 54.3787 147.812 54.5035C145.774 54.5796 144.817 54.4278 143.643 53.8421ZM130.809 41.2306C124.929 37.372 124.573 30.3116 129.859 22.4046C130.872 20.8891 132.016 19.2605 132.4 18.7855L133.099 17.922L134.815 20.2969C139.356 26.5808 140.977 31.7867 139.628 35.7456C138.88 37.9401 137.138 40.1185 135.155 41.3384C134.109 41.9821 133.128 42.5002 132.975 42.4897C132.823 42.4791 131.848 41.9126 130.809 41.2306Z" fill="black"/>
<path d="M107.538 44.0966C107.533 44.2042 107.648 44.4495 107.842 44.7393C108.037 45.0291 108.995 46.3289 109.038 46.3622C109.051 46.371 109.089 46.4206 109.124 46.4694C109.159 46.5206 109.194 46.5641 109.201 46.5662C109.208 46.5683 109.266 46.6341 109.331 46.712C109.395 46.7923 109.462 46.8709 109.478 46.8912C109.515 46.93 109.75 47.2017 109.826 47.2932C109.853 47.3269 109.89 47.3658 109.905 47.3807C109.921 47.3955 109.968 47.4479 110.008 47.4981C110.049 47.5484 110.116 47.6247 110.159 47.668C110.201 47.7112 110.26 47.7748 110.292 47.8122C110.322 47.8467 110.366 47.893 110.387 47.9146C110.409 47.9339 110.478 48.0056 110.54 48.0751C110.603 48.1424 110.697 48.2394 110.752 48.2915C110.804 48.3453 110.887 48.4288 110.935 48.4788C111.052 48.6005 111.6 49.1241 111.747 49.2526C111.813 49.3105 111.893 49.3803 111.927 49.4085C112.202 49.6515 112.258 49.6989 112.276 49.7045C112.288 49.708 112.323 49.7339 112.354 49.7637C112.383 49.7928 112.446 49.8447 112.491 49.8786C112.602 49.9629 112.742 50.074 112.817 50.1347C112.894 50.1985 113.006 50.2781 113.086 50.3303C113.147 50.3691 113.203 50.409 113.366 50.5293C113.405 50.5589 113.5 50.6206 113.576 50.669C113.749 50.7722 113.893 50.864 114.045 50.9608C114.11 51.0034 114.182 51.0428 114.207 51.0505C114.23 51.0575 114.314 51.0981 114.391 51.1419C114.716 51.3289 114.863 51.4014 114.96 51.4308C115.017 51.4483 115.142 51.5038 115.238 51.5532C115.489 51.6825 116.633 52.0291 116.897 52.056C117.002 52.0675 117.132 52.0891 117.185 52.1052C117.236 52.1206 117.341 52.1375 117.416 52.1399C117.493 52.1453 117.639 52.1541 117.74 52.1619C117.967 52.1799 118.173 52.1816 118.288 52.1706C118.335 52.1646 118.39 52.1661 118.408 52.1717C118.443 52.1822 118.492 52.1793 118.715 52.1505C118.757 52.1455 118.898 52.1299 119.027 52.1184C119.155 52.104 119.274 52.089 119.29 52.0839C119.305 52.0781 119.426 52.0516 119.56 52.0262C119.691 52.0001 119.821 51.971 119.848 51.9588C119.872 51.9458 119.899 51.9389 119.909 51.9417C119.915 51.9438 120.003 51.9197 120.104 51.8869C120.207 51.8547 120.298 51.8314 120.307 51.8342C120.317 51.8346 120.396 51.8078 120.483 51.7707C120.569 51.736 120.718 51.6772 120.812 51.6399C121.31 51.4459 122.111 50.9914 122.55 50.6525C122.602 50.6126 122.664 50.5678 122.688 50.5549C122.742 50.5256 123.24 50.106 123.445 49.9197C123.616 49.7636 123.949 49.4078 123.961 49.366C123.966 49.3521 123.995 49.3128 124.027 49.282C124.061 49.2465 124.103 49.1578 124.134 49.0609C124.182 48.9053 124.184 48.863 124.155 48.6006C124.143 48.4905 124.087 48.1614 124.06 48.0494C124.048 47.9975 124.03 47.9083 124.017 47.8488C123.964 47.5917 123.713 46.8055 123.604 46.557C123.549 46.4312 122.969 45.3399 122.882 45.202C122.697 44.8973 122.395 44.4687 122.244 44.2935C122.101 44.1258 121.761 43.7895 121.624 43.6769C121.486 43.5642 121.398 43.4893 121.337 43.4327C121.306 43.4029 121.266 43.3757 121.25 43.3708C121.231 43.3652 121.187 43.3366 121.151 43.3054C121.09 43.2565 120.984 43.1836 120.737 43.0227C120.684 42.9889 120.564 42.9195 120.469 42.8678C120.373 42.8161 120.248 42.7476 120.187 42.7141C120.076 42.6498 119.898 42.5782 119.314 42.3504C118.986 42.2233 118.898 42.199 118.382 42.0935C117.653 41.9435 117.285 41.8951 116.636 41.8633C116.435 41.853 116.021 41.8443 115.883 41.8506C115.84 41.8504 115.771 41.8524 115.731 41.8504C115.656 41.8503 115.584 41.854 115.308 41.8742C115.23 41.8811 115.143 41.8852 115.116 41.8844C115.088 41.8837 115.027 41.8855 114.98 41.8914C114.812 41.9117 114.724 41.9204 114.519 41.9394C114.404 41.9504 114.275 41.9618 114.233 41.9669C114.089 41.9841 112.64 42.2372 112.475 42.2734C112.386 42.2921 112.289 42.3134 112.259 42.3196C112.23 42.3235 112.181 42.3365 112.151 42.3427C112.046 42.3742 111.876 42.419 111.82 42.4298C111.753 42.4425 111.397 42.535 111.294 42.5648C111.253 42.5775 111.201 42.5898 111.18 42.5935C111.159 42.5948 111.095 42.6159 111.037 42.639C110.98 42.6599 110.925 42.6761 110.918 42.674C110.911 42.6719 110.823 42.6959 110.72 42.7281C110.619 42.7609 110.531 42.785 110.524 42.7829C110.517 42.7808 110.465 42.7953 110.408 42.8162C110.351 42.8393 110.284 42.8597 110.259 42.8673C110.123 42.8996 109.59 43.0755 109.256 43.1972C109.046 43.2732 108.845 43.3442 108.814 43.3551C108.699 43.3937 108.277 43.5549 108.246 43.5734C108.228 43.5832 108.125 43.633 108.014 43.683C107.66 43.8421 107.547 43.9398 107.538 44.0966Z" fill="#CD4B22"/>
<path d="M132.949 23.0729C132.845 23.0995 132.643 23.2806 132.422 23.551C132.201 23.8215 131.235 25.1157 131.216 25.1664C131.211 25.1809 131.175 25.2316 131.138 25.2799C131.099 25.3282 131.068 25.3741 131.068 25.3813C131.068 25.3886 131.022 25.4634 130.966 25.5479C130.908 25.6325 130.852 25.7194 130.837 25.7411C130.811 25.787 130.619 26.0912 130.553 26.1902C130.529 26.2265 130.502 26.2723 130.493 26.2917C130.483 26.311 130.447 26.3713 130.41 26.4245C130.374 26.4776 130.32 26.5645 130.291 26.6176C130.262 26.6708 130.218 26.7456 130.192 26.7867C130.167 26.8253 130.136 26.8808 130.121 26.9074C130.109 26.9339 130.061 27.0209 130.012 27.1006C129.966 27.1802 129.9 27.2986 129.866 27.3662C129.83 27.4314 129.774 27.5352 129.74 27.5956C129.658 27.7428 129.315 28.4189 129.235 28.5976C129.199 28.6773 129.155 28.7739 129.138 28.8149C128.985 29.1482 128.956 29.2158 128.956 29.2351C128.956 29.2472 128.942 29.2882 128.922 29.3268C128.903 29.3631 128.871 29.4379 128.852 29.491C128.803 29.6214 128.738 29.788 128.701 29.8774C128.663 29.9691 128.619 30.0995 128.592 30.1913C128.573 30.2613 128.551 30.3265 128.483 30.5173C128.466 30.5631 128.434 30.6718 128.41 30.7587C128.362 30.9543 128.315 31.1185 128.267 31.2924C128.245 31.3672 128.228 31.4469 128.228 31.4735C128.228 31.4976 128.214 31.5894 128.194 31.6763C128.109 32.0409 128.082 32.2027 128.082 32.3041C128.082 32.3645 128.065 32.4997 128.046 32.6059C127.995 32.8836 127.995 34.0789 128.046 34.3396C128.065 34.4435 128.082 34.5739 128.082 34.6294C128.082 34.6825 128.097 34.7888 128.116 34.8612C128.133 34.936 128.167 35.0785 128.189 35.1775C128.238 35.3997 128.296 35.5977 128.34 35.7039C128.359 35.7474 128.374 35.8005 128.374 35.8198C128.374 35.856 128.391 35.9019 128.483 36.1071C128.5 36.1458 128.556 36.2762 128.604 36.3969C128.655 36.5152 128.704 36.6239 128.714 36.6384C128.723 36.6504 128.784 36.7591 128.847 36.8798C128.91 36.9981 128.976 37.114 128.995 37.1358C129.015 37.1551 129.029 37.1792 129.029 37.1889C129.029 37.1961 129.078 37.2734 129.138 37.3603C129.199 37.4497 129.248 37.5294 129.248 37.539C129.25 37.5487 129.298 37.6163 129.359 37.6887C129.417 37.7612 129.517 37.8867 129.58 37.9664C129.91 38.3866 130.578 39.0216 131.029 39.3428C131.082 39.3814 131.143 39.4273 131.163 39.4466C131.206 39.49 131.752 39.845 131.99 39.9875C132.189 40.1058 132.626 40.3207 132.67 40.3207C132.684 40.3207 132.731 40.3376 132.769 40.3593C132.813 40.381 132.91 40.3955 133.012 40.3979C133.175 40.3979 133.216 40.3883 133.459 40.2845C133.561 40.241 133.859 40.0913 133.959 40.0333C134.005 40.0068 134.085 39.9633 134.138 39.9343C134.369 39.8088 135.049 39.3403 135.255 39.1641C135.359 39.0747 136.235 38.203 136.342 38.0799C136.58 37.8143 136.903 37.4014 137.027 37.2058C137.146 37.0199 137.369 36.5973 137.437 36.4331C137.505 36.2689 137.551 36.1627 137.587 36.0878C137.607 36.0492 137.621 36.0033 137.621 35.9864C137.621 35.9671 137.636 35.9164 137.655 35.8729C137.685 35.8005 137.723 35.6773 137.806 35.3948C137.823 35.3345 137.854 35.1992 137.876 35.093C137.898 34.9868 137.927 34.8467 137.942 34.7791C137.971 34.6535 137.988 34.4628 138.036 33.8374C138.063 33.4873 138.061 33.3955 138.012 32.8715C137.944 32.1302 137.884 31.7632 137.726 31.133C137.677 30.9374 137.566 30.539 137.519 30.4086C137.507 30.3676 137.485 30.3024 137.476 30.2637C137.454 30.1913 137.43 30.1237 137.33 29.8653C137.301 29.7929 137.272 29.7108 137.265 29.6842C137.257 29.6577 137.238 29.5997 137.218 29.5562C137.151 29.4017 137.117 29.3196 137.039 29.1288C136.995 29.0226 136.947 28.9019 136.93 28.8632C136.871 28.7304 136.209 27.4169 136.126 27.2696C136.083 27.1899 136.034 27.103 136.019 27.0764C136.007 27.0498 135.981 27.0064 135.966 26.9798C135.905 26.8881 135.813 26.7384 135.786 26.6877C135.755 26.6273 135.563 26.3134 135.505 26.224C135.481 26.1878 135.454 26.1419 135.444 26.1226C135.437 26.1033 135.398 26.0478 135.359 25.9995C135.323 25.9512 135.291 25.9029 135.291 25.8957C135.291 25.8884 135.243 25.8111 135.182 25.7218C135.121 25.6349 135.073 25.5576 135.073 25.5504C135.073 25.5431 135.044 25.4972 135.007 25.4489C134.968 25.4007 134.93 25.3427 134.915 25.321C134.845 25.2002 134.522 24.7415 134.308 24.4565C134.175 24.2778 134.049 24.1064 134.029 24.0798C133.959 23.9808 133.682 23.6235 133.655 23.5993C133.641 23.5848 133.563 23.5003 133.483 23.4086C133.228 23.1164 133.102 23.0367 132.949 23.0729Z" fill="#CD4B22"/>
<path d="M158.705 43.9403C158.649 43.8482 158.418 43.7079 158.095 43.575C157.772 43.442 156.253 42.893 156.199 42.8891C156.184 42.8886 156.125 42.8685 156.068 42.8477C156.01 42.8245 155.957 42.8076 155.95 42.8097C155.944 42.8118 155.859 42.7894 155.761 42.7605C155.664 42.7293 155.564 42.701 155.539 42.6934C155.488 42.6812 155.141 42.5859 155.027 42.5519C154.985 42.5392 154.934 42.5269 154.913 42.5232C154.891 42.5196 154.823 42.5022 154.762 42.4828C154.7 42.4634 154.601 42.4375 154.542 42.425C154.483 42.4125 154.399 42.3924 154.352 42.3788C154.308 42.3668 154.245 42.3527 154.216 42.3464C154.187 42.3425 154.089 42.3213 153.999 42.298C153.909 42.2769 153.777 42.2485 153.703 42.2356C153.63 42.2197 153.514 42.1964 153.447 42.1814C153.282 42.1451 152.536 42.0137 152.341 41.9889C152.254 41.9771 152.149 41.9633 152.105 41.959C151.742 41.9093 151.669 41.901 151.65 41.9066C151.639 41.9101 151.595 41.9081 151.553 41.9007C151.512 41.8926 151.432 41.8842 151.375 41.881C151.236 41.8723 151.058 41.8579 150.962 41.849C150.863 41.8385 150.725 41.8345 150.63 41.8355C150.557 41.8373 150.488 41.8353 150.286 41.8255C150.237 41.8226 150.124 41.8239 150.034 41.8259C149.833 41.8362 149.662 41.8396 149.482 41.8436C149.404 41.8444 149.323 41.8513 149.297 41.859C149.274 41.866 149.182 41.8786 149.093 41.8853C148.72 41.9097 148.557 41.9311 148.46 41.9605C148.402 41.978 148.268 42.001 148.161 42.0132C147.88 42.0449 146.737 42.3916 146.502 42.516C146.408 42.5647 146.288 42.6187 146.235 42.6348C146.184 42.6502 146.087 42.695 146.023 42.7346C145.956 42.7725 145.83 42.8464 145.742 42.896C145.543 43.0069 145.37 43.12 145.281 43.1927C145.245 43.2238 145.199 43.2532 145.18 43.2588C145.146 43.2693 145.107 43.2989 144.937 43.4466C144.905 43.4741 144.796 43.5653 144.695 43.6468C144.597 43.7299 144.507 43.8078 144.496 43.8213C144.487 43.8341 144.401 43.9237 144.303 44.0191C144.208 44.1138 144.116 44.2101 144.101 44.235C144.088 44.2592 144.07 44.2801 144.06 44.2829C144.053 44.285 143.994 44.3539 143.928 44.4372C143.86 44.5212 143.798 44.5907 143.789 44.5935C143.78 44.5986 143.729 44.6647 143.678 44.7438C143.625 44.8205 143.534 44.9522 143.476 45.0357C143.17 45.4734 142.756 46.2963 142.579 46.8214C142.558 46.8837 142.531 46.9551 142.519 46.9793C142.49 47.0337 142.308 47.6592 142.241 47.9282C142.186 48.1529 142.107 48.6333 142.119 48.6751C142.124 48.6891 142.121 48.7381 142.111 48.7816C142.103 48.8297 142.117 48.9268 142.145 49.025C142.192 49.1807 142.213 49.2173 142.383 49.4195C142.454 49.5044 142.684 49.7467 142.768 49.8251C142.807 49.8616 142.872 49.9256 142.915 49.9683C143.102 50.1525 143.747 50.667 143.976 50.8133C144.092 50.8873 145.18 51.473 145.329 51.5395C145.652 51.6901 146.14 51.8792 146.364 51.941C146.576 52.0009 147.045 52.092 147.222 52.1094C147.399 52.1268 147.514 52.1401 147.596 52.1533C147.639 52.1607 147.687 52.1613 147.703 52.1564C147.721 52.1508 147.774 52.15 147.821 52.156C147.899 52.1629 148.028 52.1643 148.322 52.1613C148.385 52.1601 148.524 52.1511 148.632 52.1412C148.74 52.1313 148.882 52.1185 148.951 52.1128C149.08 52.1043 149.267 52.0652 149.88 51.9303C150.222 51.8543 150.31 51.8254 150.797 51.627C151.486 51.347 151.82 51.1825 152.377 50.8487C152.55 50.7456 152.899 50.5232 153.011 50.4412C153.047 50.4177 153.103 50.3779 153.137 50.3574C153.2 50.3155 153.257 50.2727 153.476 50.1025C153.537 50.0536 153.607 50.002 153.63 49.9873C153.653 49.9726 153.703 49.9372 153.739 49.906C153.867 49.7962 153.936 49.7399 154.096 49.6102C154.185 49.5376 154.286 49.4561 154.319 49.4287C154.429 49.3344 155.493 48.3194 155.611 48.1977C155.674 48.1328 155.743 48.0611 155.764 48.0395C155.786 48.0202 155.82 47.982 155.841 47.9604C155.912 47.8757 156.028 47.744 156.069 47.7038C156.117 47.6561 156.362 47.3816 156.431 47.2999C156.458 47.2662 156.495 47.2273 156.51 47.2124C156.527 47.1999 156.569 47.1466 156.603 47.0954C156.639 47.0466 156.676 47.0024 156.683 47.0003C156.69 46.9982 156.75 46.9293 156.818 46.8453C156.883 46.7621 156.943 46.6932 156.95 46.6911C156.957 46.689 156.993 46.6478 157.028 46.599C157.063 46.5478 157.107 46.4938 157.124 46.4736C157.219 46.3712 157.564 45.9293 157.775 45.6423C157.907 45.4627 158.035 45.2922 158.055 45.2659C158.129 45.1698 158.391 44.8014 158.406 44.7689C158.416 44.7507 158.474 44.6519 158.539 44.5486C158.744 44.22 158.784 44.0761 158.705 43.9403Z" fill="#CD4B22"/>
<path d="M132.575 60.1784C131.844 60.5389 131.173 61.4 130.451 62.8719C129.449 64.9245 128.758 67.2274 127.856 71.583C126.724 77.0199 125.582 81.2352 124.159 85.3004C121.965 91.5283 119.14 96.6949 115.984 100.259C115.623 100.67 115.323 101.06 115.323 101.131C115.323 101.501 116.665 102.092 118.058 102.332C120.633 102.783 123.689 101.892 126.283 99.919C126.834 99.5085 127.345 99.1681 127.416 99.1681C127.646 99.1681 127.736 99.5285 127.676 100.279C127.506 102.632 128.918 105.606 131.493 108.26C132.535 109.341 132.956 109.631 133.317 109.541C133.627 109.461 134.99 108.17 135.761 107.228C137.775 104.765 138.817 102.182 138.627 100.109C138.577 99.5485 138.597 99.3683 138.707 99.2782C138.887 99.128 139.068 99.2081 139.989 99.909C141.412 101 143.035 101.791 144.628 102.192C145.81 102.482 147.684 102.502 148.786 102.242C149.618 102.042 150.78 101.511 150.93 101.261C151.01 101.121 150.83 100.86 150.068 99.9591C144.869 93.7912 141.302 85.1402 138.517 71.9334C137.765 68.3689 137.505 67.3275 136.843 65.325C135.841 62.2511 134.599 60.3787 133.307 59.9782C133.176 59.9381 132.896 60.0182 132.575 60.1784Z" fill="#CD4B22"/>
</svg>
