<svg width="200" height="111" viewBox="0 0 200 111" fill="none" xmlns="http://www.w3.org/2000/svg">
<path d="M124.753 110.127C123.022 108.576 122.953 106.263 124.505 101.818C126.864 95.0624 130.923 88.2078 139.142 77.1006L142.58 72.4536L142.018 71.3507C141.384 70.1093 139.867 68.7091 139.155 68.7091C137.419 68.7091 133.771 71.791 131.786 74.9335C130.034 77.7073 128.852 78.6711 127.201 78.6711C126.077 78.6711 125.846 78.5673 125.615 77.9584C125.256 77.0142 125.628 75.8023 126.802 74.0964C128.314 71.8993 131.553 65.3155 132.696 62.1166C134.235 57.8102 134.786 54.7925 134.809 50.5432C134.826 47.451 134.738 46.6982 134.247 45.7087C133.886 44.9822 133.429 44.5031 133.046 44.4484C131.661 44.2506 129.456 47.1589 126.592 52.9604C125.124 55.9337 124.67 56.3032 123.688 55.3215C122.082 53.7155 126.073 44.2087 129.244 42.0882C133.3 39.3754 137.509 40.4723 139.127 44.6639C140.017 46.9676 140.206 52.09 139.535 55.6707C139.142 57.7663 137.662 62.9124 136.819 65.1199C136.716 65.3891 137.172 65.4866 138.541 65.4878C140.953 65.49 142.229 65.8614 144.062 67.0951L145.554 68.0989L146.597 66.4683C148.11 64.1031 149.767 60.9633 150.829 58.4504C151.616 56.5879 151.748 55.931 151.706 54.1C151.639 51.2161 152.106 49.0756 153.364 46.4961C154.553 44.0588 156.459 41.9337 158.063 41.2577C159.605 40.6078 161.845 40.665 163.268 41.3906C164.797 42.1707 166.963 44.5024 167.928 46.4068C169.225 48.9663 169.658 51.1984 169.682 55.4509C169.694 57.5861 169.811 59.3331 169.942 59.3331C170.335 59.3332 173.359 57.7915 173.632 57.4514C173.772 57.2777 174.045 55.2939 174.238 53.0429C174.618 48.6379 175.22 45.0128 175.732 44.0568C176.386 42.8342 179.746 42.2278 179.843 43.3147C179.86 43.5034 179.848 46.9615 179.816 50.9996C179.785 55.0376 179.856 58.9842 179.973 59.7697C180.182 61.1618 180.22 61.0616 181.46 55.7972C182.876 49.7885 184.85 43.7653 187.221 38.2162C189.145 33.7136 190.291 31.988 191.901 31.1664C192.98 30.6159 193.236 30.5874 194.156 30.9157C196.008 31.5764 197.349 32.7295 197.901 34.1352C198.796 36.4182 198.561 41.4767 197.145 50.3967C194.556 66.7111 194.227 73.6418 195.791 78.9076C196.358 80.8187 198.118 82.7731 199.271 82.7731C199.967 82.7731 200.056 82.8747 199.975 83.5767C199.849 84.6738 198.597 85.2265 196.284 85.2064C194.784 85.1933 194.191 85.0341 193.076 84.3443C191.414 83.3171 190.845 82.392 190.016 79.376C189.458 77.341 189.38 76.3122 189.379 70.9066C189.378 64.1813 189.755 60.0001 191.393 48.5621C191.956 44.6307 192.407 40.3092 192.402 38.8932C192.393 36.5259 192.358 36.3769 191.94 36.9187C191 38.1355 188.828 43.0554 187.575 46.8075C186.579 49.7868 181.773 68.0737 180.573 73.4476C180.34 74.4922 178.711 75.0839 177.476 74.5725C175.842 73.8956 174.656 69.9368 174.17 63.5354L173.833 59.0941L172.641 59.9143C171.985 60.3655 170.969 60.935 170.382 61.18C169.405 61.5882 169.288 61.7681 168.974 63.336C168.027 68.0596 166.669 71.6428 164.992 73.8421C162.867 76.6273 158.964 76.7856 156.317 74.194C154.18 72.1026 152.654 68.0049 152.093 62.8556C151.955 61.5895 151.803 61.1018 151.637 61.3906C151.499 61.6288 150.334 63.595 149.047 65.76L146.706 69.6963L147.494 71.62C148.202 73.3458 148.282 73.9052 148.275 77.0596C148.266 81.1292 147.434 85.2768 145.5 90.8849C143.219 97.4992 140.736 101.667 136.613 105.797C133.354 109.061 130.476 110.659 127.517 110.848C125.836 110.955 125.611 110.896 124.753 110.127ZM129.385 108.208C131.189 107.335 133.957 104.419 135.654 101.604C139.832 94.6725 143.203 83.8492 143.175 77.4531L143.163 74.7156L142.319 75.7025C140.652 77.6521 135.404 85.0419 133.136 88.6331C127.712 97.2241 124.301 106.478 125.863 108.364C126.417 109.034 127.807 108.972 129.385 108.208ZM162.048 71.9741C162.702 71.251 163.571 68.7171 163.972 66.3651C164.151 65.3177 164.362 64.164 164.442 63.8014C164.583 63.1613 164.52 63.1421 162.284 63.1421C161.018 63.1421 159.367 62.9573 158.616 62.7313L157.251 62.3205V63.1384C157.251 64.3055 158.069 68.4634 158.589 69.9356C159.411 72.267 160.958 73.1784 162.048 71.9741ZM164.947 58.1611C165.232 55.3702 164.942 50.066 164.387 47.938C163.568 44.7928 162.082 42.6322 160.738 42.6322C159.973 42.6322 158.198 44.2804 157.509 45.6314C155.895 48.7953 155.271 54.3377 156.372 55.7372C156.694 56.1469 156.958 56.8395 156.958 57.2763C156.958 58.6476 158.787 59.7303 161.888 60.1949C164.744 60.6227 164.692 60.6574 164.947 58.1611ZM60.0592 90.552C55.8262 89.2291 52.4049 85.2204 50.1734 78.9689C48.1871 73.4047 46.2967 64.4844 45.4841 56.8427C44.8126 50.5267 44.7254 49.9313 44.4933 50.0747C44.3786 50.1456 42.64 50.4189 40.6298 50.682C38.6197 50.9451 36.3035 51.2902 35.4829 51.4489L33.9908 51.7376L32.7326 54.7296C28.2484 65.3936 22.8666 74.2077 17.6548 79.4233C14.8207 82.2595 13.2897 83.1806 10.5754 83.6824C8.81246 84.0083 6.36954 83.6838 4.91251 82.9304C3.63001 82.2672 2.09425 80.574 1.3609 79.0146C-2.61351 70.5638 2.66246 50.2757 10.1406 45.2533C11.7473 44.1742 13.0632 43.8062 15.293 43.8123C19.4451 43.8236 21.8855 46.4836 21.8855 50.9981V52.8444L23.5703 51.8287C24.9124 51.0195 27.9728 49.8909 31.4317 48.9296C32.4712 48.6407 40.0136 25.5593 45.0239 7.33471C45.9972 3.79433 46.9953 0.69586 47.2419 0.449226C47.5515 0.139665 48.2737 0.000799848 49.5739 0.000799848C52.6232 0.000799848 52.5479 -0.237872 51.95 7.53048C51.6734 11.1243 51.2528 16.2403 51.0154 18.8993C50.778 21.5582 50.5021 28.4474 50.4024 34.2085C50.2462 43.2317 50.2797 44.6832 50.6445 44.6832C51.2988 44.6832 54.4369 42.0312 55.3286 40.7246C56.4049 39.1476 57.0489 36.9896 57.3152 34.0679C57.5682 31.292 57.9359 30.408 58.9428 30.1553C60.7559 29.7003 62.6158 31.1814 63.0346 33.4136C63.5763 36.3009 61.2873 41.6609 58.3949 44.2785C56.7044 45.8082 51.9734 48.4922 50.9673 48.4922C50.5766 48.4922 50.5431 48.8973 50.7194 51.4954C51.7022 65.9856 55.3901 80.3195 59.3809 85.1606C62.899 89.4285 67.3306 88.9206 70.566 83.8787C71.2052 82.8826 71.6551 82.4801 72.1295 82.4801C73.2178 82.4801 73.5971 83.1889 73.2066 84.4924C72.4061 87.1642 69.7716 89.6895 66.8931 90.5444C65.1177 91.0716 61.7339 91.0754 60.0592 90.552ZM12.8025 79.7725C14.7309 78.8676 18.5791 74.8796 20.792 71.4926C23.9377 66.6781 30.4686 53.4616 29.9555 52.9485C29.7073 52.7003 26.4986 54.1761 24.7209 55.3561C23.8334 55.9451 21.7111 57.8862 20.0046 59.6696C17.1703 62.6317 16.8325 62.8946 16.0981 62.7103C15.656 62.5993 15.2402 62.4544 15.1741 62.3884C15.108 62.3223 15.5347 60.8497 16.1222 59.1159C17.5279 54.9681 18.0669 52.5484 18.0722 50.3629C18.0795 47.3492 16.5856 46.2413 14.3515 47.6035C11.7004 49.2199 8.00619 56.6498 6.61587 63.1616C5.73434 67.2903 5.64504 74.7998 6.44992 77.1163C7.68783 80.6791 9.37093 81.3828 12.8025 79.7725ZM41.6446 47.3702L44.5562 46.8807L44.4818 40.5812C44.4131 34.7673 44.8669 20.2087 45.1804 18.1668C45.4945 16.1215 44.6327 18.6628 41.9905 27.5728C39.6745 35.3829 36.4087 45.5211 35.5005 47.7203C35.29 48.23 35.3918 48.2532 37.0039 48.0633C37.9549 47.9513 40.0432 47.6394 41.6446 47.3702ZM101.024 88.154C98.8789 85.8132 97.7132 83.5128 97.5417 81.2822L97.4157 79.6448L95.5556 80.8921C94.4674 81.6219 93.0376 82.2867 92.11 82.4943C90.1132 82.9411 87.4098 82.7489 85.9705 82.0578L84.8631 81.5261L85.6092 80.6114C91.3111 73.6206 94.3168 66.5352 97.4477 52.7047C99.2709 44.6511 100.475 41.6123 102.325 40.4002C104.365 39.0639 106.57 42.5602 108.213 49.735C112.052 66.4976 114.847 73.4379 120.552 80.3787L121.503 81.5356L120.405 82.0811C119.594 82.4842 118.658 82.6266 116.817 82.6266C113.961 82.6266 112.22 82.0833 110.244 80.5751L108.982 79.6118L108.831 81.2821C108.626 83.5361 107.227 86.2217 105.136 88.3715C104.213 89.3211 103.31 90.0981 103.131 90.0981C102.952 90.0981 102.004 89.2232 101.024 88.154ZM73.5999 74.0169C69.2225 72.8777 66.5139 67.9476 65.2108 58.7472C64.7092 55.2059 64.6971 40.7028 65.1922 36.6257C66.7259 23.9984 70.0597 12.9184 73.896 7.69918C74.9776 6.22765 76.7378 5.12829 78.0122 5.12829C79.2552 5.12829 80.7179 5.98727 81.433 7.13723C82.0398 8.11296 82.0956 8.54499 82.0818 12.1603C82.0687 15.614 81.9501 16.5668 81.1468 19.6717C79.3857 26.4794 76.2223 33.6545 72.4798 39.3305L70.5234 42.2976L70.5236 47.8121C70.524 56.6448 71.2069 62.0055 72.8869 66.3651C73.9484 69.1197 75.241 70.7601 76.3499 70.7601C78.555 70.7601 80.3686 66.6848 83.1068 55.5765C83.7552 52.9463 84.3613 50.6719 84.4538 50.5222C84.7117 50.105 85.4652 50.1991 85.6463 50.6713C85.825 51.1369 83.7673 60.69 82.6807 64.4397C81.1635 69.6754 79.7148 72.4484 77.9694 73.458C76.903 74.0749 74.8378 74.3391 73.5999 74.0169ZM72.7903 34.355C76.7331 27.3724 80.2716 16.5925 80.3161 11.4278C80.3557 6.83772 79.2607 6.36521 77.4442 10.1885C75.316 14.6678 73.4242 21.8578 72.1249 30.4052C71.7272 33.0207 71.3544 35.4574 71.2963 35.82C71.1111 36.9757 71.558 36.5375 72.7903 34.355ZM88.6946 41.7307C86.542 40.7542 84.3767 38.9255 82.373 36.3916C81.3348 35.0786 80.4854 33.8468 80.4854 33.6544C80.4854 33.2781 84.0425 32.0316 86.5795 31.519C91.9573 30.4323 96.1794 32.3417 97.7339 36.5634C98.5833 38.8702 98.5343 39.2206 97.2162 40.2645C94.5436 42.3813 91.343 42.932 88.6946 41.7307ZM111.387 41.7516C109.723 40.9211 108.027 39.4597 108.027 38.8551C108.027 38.5737 108.237 37.6274 108.494 36.7522C108.852 35.5323 109.325 34.806 110.52 33.6415C113.484 30.7511 117.106 30.4547 123.63 32.5686C124.878 32.9732 125.9 33.4109 125.9 33.5411C125.9 34.0161 123.117 37.5453 121.565 39.0383C119.343 41.1767 117.209 42.1677 114.62 42.2644C113.04 42.3235 112.297 42.2057 111.387 41.7516ZM101.435 31.9721C96.8757 28.9799 96.5996 23.505 100.698 17.3735C101.484 16.1983 102.371 14.9354 102.669 14.5671L103.211 13.8975L104.542 15.7391C108.063 20.6119 109.32 24.6488 108.274 27.7188C107.694 29.4205 106.343 31.1097 104.805 32.0557C103.994 32.5548 103.234 32.9566 103.115 32.9484C102.997 32.9402 102.241 32.5009 101.435 31.9721Z" fill="black"/>
<path d="M83.3896 34.1944C83.3858 34.2778 83.4749 34.468 83.6259 34.6928C83.7769 34.9175 84.52 35.9254 84.5533 35.9512C84.5629 35.9581 84.5924 35.9965 84.62 36.0344C84.6471 36.074 84.6741 36.1078 84.6794 36.1094C84.6848 36.111 84.73 36.1621 84.7801 36.2225C84.8297 36.2847 84.8817 36.3457 84.8945 36.3614C84.9226 36.3915 85.1052 36.6022 85.1639 36.6731C85.1854 36.6993 85.2134 36.7294 85.2255 36.741C85.2377 36.7525 85.2743 36.7931 85.3055 36.8321C85.3368 36.871 85.3893 36.9302 85.4221 36.9638C85.455 36.9973 85.5007 37.0466 85.5252 37.0756C85.5484 37.1023 85.5825 37.1382 85.5989 37.155C85.6159 37.17 85.6695 37.2256 85.7177 37.2795C85.7664 37.3316 85.8395 37.4069 85.882 37.4473C85.9222 37.489 85.9867 37.5538 86.0239 37.5926C86.1146 37.6869 86.5393 38.0929 86.6539 38.1925C86.7048 38.2375 86.7667 38.2916 86.7933 38.3135C87.0062 38.5019 87.0498 38.5387 87.0641 38.543C87.0731 38.5457 87.1003 38.5658 87.1246 38.5889C87.1471 38.6114 87.1955 38.6517 87.2306 38.678C87.3164 38.7434 87.4253 38.8295 87.4834 38.8766C87.5428 38.926 87.6297 38.9878 87.6918 39.0282C87.7394 39.0584 87.7828 39.0893 87.9091 39.1826C87.9393 39.2055 88.0129 39.2534 88.0719 39.2909C88.2061 39.3709 88.3176 39.4421 88.4357 39.5172C88.4863 39.5502 88.5416 39.5808 88.5613 39.5867C88.5792 39.5922 88.644 39.6236 88.7042 39.6576C88.9556 39.8026 89.0697 39.8588 89.1449 39.8816C89.1897 39.8952 89.2862 39.9382 89.3607 39.9765C89.5553 40.0768 90.4422 40.3456 90.6472 40.3664C90.7286 40.3754 90.8291 40.3921 90.8704 40.4046C90.9098 40.4165 90.9919 40.4296 91.05 40.4315C91.1094 40.4357 91.2227 40.4425 91.3011 40.4486C91.4769 40.4625 91.6369 40.4638 91.7255 40.4553C91.7622 40.4507 91.8049 40.4518 91.8192 40.4562C91.8461 40.4643 91.8839 40.462 92.057 40.4397C92.0895 40.4358 92.1988 40.4237 92.2993 40.4149C92.3985 40.4036 92.4901 40.3921 92.503 40.3881C92.5142 40.3836 92.6084 40.363 92.7122 40.3434C92.8142 40.3231 92.9149 40.3006 92.9354 40.2911C92.9541 40.281 92.9753 40.2756 92.9825 40.2778C92.9879 40.2794 93.0561 40.2608 93.1343 40.2353C93.2142 40.2104 93.2843 40.1923 93.2914 40.1944C93.2991 40.1948 93.3602 40.174 93.4276 40.1452C93.4945 40.1183 93.61 40.0727 93.6833 40.0438C94.0693 39.8933 94.6907 39.5409 95.0305 39.2781C95.0712 39.2472 95.1189 39.2125 95.1376 39.2024C95.1797 39.1797 95.5659 38.8543 95.7251 38.7099C95.8576 38.5888 96.1154 38.3129 96.1252 38.2805C96.1285 38.2697 96.1514 38.2393 96.1762 38.2154C96.2022 38.1878 96.2348 38.119 96.2595 38.0439C96.2961 37.9233 96.2982 37.8905 96.2757 37.687C96.2664 37.6016 96.2225 37.3464 96.2018 37.2595C96.1925 37.2193 96.1783 37.1501 96.1688 37.104C96.1275 36.9046 95.9327 36.295 95.8483 36.1022C95.8055 36.0047 95.3557 35.1585 95.2884 35.0515C95.1448 34.8153 94.911 34.4829 94.7937 34.3471C94.6825 34.217 94.4191 33.9563 94.3126 33.8689C94.206 33.7815 94.1376 33.7234 94.0902 33.6796C94.0659 33.6565 94.0351 33.6354 94.0226 33.6316C94.0083 33.6272 93.9739 33.605 93.946 33.5808C93.8988 33.5429 93.8162 33.4864 93.6251 33.3616C93.5841 33.3354 93.4909 33.2816 93.417 33.2415C93.3431 33.2014 93.2457 33.1483 93.1988 33.1223C93.1122 33.0724 92.9744 33.0169 92.5213 32.8403C92.2675 32.7417 92.1989 32.7229 91.7991 32.6411C91.2338 32.5248 90.9478 32.4872 90.4447 32.4626C90.2886 32.4546 89.9679 32.4479 89.8608 32.4528C89.8276 32.4525 89.7743 32.4541 89.7434 32.4526C89.6848 32.4525 89.6291 32.4553 89.415 32.4711C89.3547 32.4764 89.2873 32.4795 89.2659 32.479C89.2446 32.4784 89.1972 32.4798 89.1606 32.4844C89.0306 32.5001 88.9621 32.5068 88.8031 32.5216C88.7144 32.5301 88.6139 32.539 88.5814 32.5429C88.4698 32.5562 87.346 32.7525 87.2182 32.7806C87.1492 32.7951 87.0738 32.8116 87.0508 32.8164C87.0284 32.8195 86.9901 32.8295 86.9671 32.8343C86.8854 32.8587 86.7536 32.8935 86.7099 32.9019C86.658 32.9117 86.382 32.9834 86.3026 33.0066C86.2703 33.0164 86.2302 33.0259 86.2137 33.0288C86.1977 33.0298 86.1478 33.0462 86.1032 33.0641C86.0592 33.0803 86.0163 33.0928 86.0109 33.0912C86.0055 33.0896 85.9373 33.1082 85.8573 33.1331C85.7792 33.1586 85.7109 33.1773 85.7055 33.1756C85.7002 33.174 85.6596 33.1853 85.6156 33.2015C85.571 33.2194 85.5192 33.2352 85.4998 33.2411C85.3944 33.2662 84.9814 33.4026 84.7219 33.497C84.5593 33.5558 84.4037 33.6109 84.3796 33.6194C84.2904 33.6493 83.963 33.7743 83.939 33.7887C83.925 33.7962 83.8448 33.8349 83.7587 33.8737C83.4846 33.9971 83.3971 34.0728 83.3896 34.1944Z" fill="#064082"/>
<path d="M103.095 17.8916C103.014 17.9122 102.858 18.0526 102.686 18.2623C102.515 18.472 101.766 19.4757 101.751 19.515C101.747 19.5262 101.719 19.5655 101.691 19.603C101.661 19.6404 101.636 19.676 101.636 19.6816C101.636 19.6872 101.6 19.7453 101.557 19.8108C101.512 19.8763 101.469 19.9438 101.457 19.9606C101.437 19.9962 101.288 20.2321 101.237 20.3089C101.218 20.337 101.198 20.3725 101.19 20.3875C101.183 20.4025 101.154 20.4493 101.126 20.4905C101.098 20.5317 101.056 20.5991 101.034 20.6403C101.011 20.6815 100.977 20.7395 100.957 20.7714C100.938 20.8013 100.913 20.8444 100.902 20.865C100.893 20.8856 100.855 20.953 100.817 21.0148C100.782 21.0766 100.731 21.1683 100.704 21.2207C100.676 21.2713 100.633 21.3518 100.607 21.3986C100.543 21.5128 100.277 22.0371 100.215 22.1757C100.187 22.2375 100.153 22.3124 100.14 22.3442C100.021 22.6026 99.9986 22.655 99.9986 22.67C99.9986 22.6794 99.9873 22.7112 99.9723 22.7411C99.9572 22.7692 99.9328 22.8273 99.9177 22.8685C99.8801 22.9696 99.8292 23.0988 99.801 23.1681C99.7709 23.2392 99.737 23.3403 99.7163 23.4115C99.7013 23.4658 99.6843 23.5163 99.6316 23.6642C99.6184 23.6998 99.594 23.7841 99.5752 23.8515C99.5375 24.0032 99.5017 24.1305 99.4641 24.2653C99.4472 24.3233 99.434 24.3851 99.434 24.4057C99.434 24.4244 99.4227 24.4956 99.4076 24.563C99.3418 24.8457 99.3211 24.9712 99.3211 25.0498C99.3211 25.0966 99.3079 25.2015 99.2928 25.2839C99.2533 25.4992 99.2533 26.4261 99.2928 26.6283C99.3079 26.7088 99.3211 26.8099 99.3211 26.853C99.3211 26.8942 99.3324 26.9765 99.3474 27.0327C99.3606 27.0908 99.3869 27.2012 99.4039 27.278C99.4415 27.4503 99.4867 27.6038 99.5206 27.6862C99.5356 27.7199 99.5469 27.7611 99.5469 27.7761C99.5469 27.8042 99.5601 27.8397 99.6316 27.9989C99.6448 28.0288 99.6881 28.13 99.7257 28.2236C99.7653 28.3153 99.8029 28.3996 99.8104 28.4108C99.818 28.4202 99.865 28.5044 99.9139 28.5981C99.9629 28.6898 100.014 28.7797 100.029 28.7965C100.044 28.8115 100.055 28.8302 100.055 28.8377C100.055 28.8433 100.093 28.9033 100.14 28.9707C100.187 29.04 100.225 29.1017 100.225 29.1092C100.226 29.1167 100.264 29.1691 100.311 29.2253C100.356 29.2815 100.433 29.3789 100.482 29.4406C100.738 29.7664 101.256 30.2589 101.606 30.5079C101.647 30.5379 101.694 30.5735 101.71 30.5884C101.743 30.6221 102.167 30.8974 102.351 31.0079C102.506 31.0996 102.844 31.2663 102.878 31.2663C102.89 31.2663 102.925 31.2794 102.956 31.2962C102.989 31.3131 103.065 31.3243 103.144 31.3262C103.27 31.3262 103.302 31.3187 103.49 31.2382C103.569 31.2045 103.801 31.0884 103.878 31.0434C103.914 31.0228 103.976 30.9891 104.017 30.9667C104.196 30.8693 104.723 30.5061 104.883 30.3694C104.964 30.3001 105.643 29.6241 105.726 29.5287C105.911 29.3227 106.161 29.0025 106.257 28.8508C106.349 28.7067 106.522 28.379 106.575 28.2517C106.628 28.1243 106.663 28.042 106.692 27.9839C106.707 27.954 106.718 27.9184 106.718 27.9053C106.718 27.8903 106.729 27.851 106.744 27.8173C106.767 27.7611 106.797 27.6656 106.861 27.4465C106.874 27.3997 106.899 27.2949 106.916 27.2125C106.933 27.1301 106.955 27.0215 106.966 26.9691C106.989 26.8717 107.002 26.7238 107.04 26.2388C107.061 25.9673 107.059 25.8962 107.021 25.4899C106.968 24.915 106.921 24.6304 106.799 24.1417C106.761 23.99 106.675 23.6811 106.639 23.58C106.63 23.5482 106.613 23.4976 106.605 23.4676C106.588 23.4115 106.569 23.359 106.492 23.1587C106.47 23.1025 106.447 23.0389 106.441 23.0183C106.436 22.9977 106.421 22.9527 106.406 22.919C106.353 22.7992 106.327 22.7355 106.266 22.5876C106.232 22.5052 106.195 22.4116 106.182 22.3816C106.136 22.2787 105.623 21.2601 105.559 21.1458C105.525 21.0841 105.487 21.0166 105.476 20.9961C105.466 20.9755 105.446 20.9418 105.434 20.9212C105.387 20.85 105.316 20.7339 105.295 20.6946C105.271 20.6478 105.122 20.4044 105.077 20.3351C105.058 20.307 105.037 20.2714 105.03 20.2564C105.024 20.2415 104.994 20.1984 104.964 20.161C104.936 20.1235 104.911 20.0861 104.911 20.0804C104.911 20.0748 104.873 20.0149 104.826 19.9456C104.779 19.8782 104.742 19.8183 104.742 19.8127C104.742 19.8071 104.719 19.7715 104.691 19.734C104.661 19.6966 104.631 19.6517 104.619 19.6348C104.565 19.5412 104.314 19.1854 104.149 18.9645C104.045 18.8259 103.947 18.693 103.932 18.6724C103.878 18.5956 103.663 18.3185 103.643 18.2998C103.631 18.2885 103.571 18.223 103.509 18.1519C103.311 17.9253 103.213 17.8635 103.095 17.8916Z" fill="#064082"/>
<path d="M123.067 34.0734C123.024 34.0019 122.844 33.8931 122.594 33.79C122.344 33.687 121.166 33.2612 121.124 33.2582C121.112 33.2578 121.066 33.2422 121.022 33.2261C120.978 33.2081 120.937 33.195 120.931 33.1966C120.926 33.1983 120.86 33.1809 120.785 33.1585C120.709 33.1342 120.632 33.1124 120.612 33.1064C120.572 33.0969 120.303 33.0231 120.215 32.9967C120.183 32.9868 120.143 32.9773 120.126 32.9745C120.11 32.9716 120.057 32.9582 120.009 32.9431C119.962 32.928 119.885 32.908 119.839 32.8983C119.793 32.8886 119.728 32.8731 119.691 32.8625C119.657 32.8531 119.609 32.8422 119.586 32.8374C119.563 32.8344 119.488 32.8179 119.418 32.7998C119.348 32.7835 119.246 32.7615 119.188 32.7514C119.132 32.7391 119.042 32.721 118.99 32.7094C118.862 32.6813 118.283 32.5794 118.132 32.5601C118.065 32.551 117.984 32.5403 117.949 32.5369C117.668 32.4984 117.611 32.492 117.597 32.4963C117.588 32.499 117.554 32.4975 117.521 32.4917C117.49 32.4855 117.427 32.4789 117.383 32.4764C117.276 32.4697 117.137 32.4586 117.063 32.4517C116.986 32.4435 116.879 32.4404 116.805 32.4412C116.749 32.4425 116.696 32.441 116.539 32.4335C116.501 32.4312 116.413 32.4322 116.343 32.4337C116.187 32.4417 116.055 32.4444 115.915 32.4475C115.855 32.4481 115.792 32.4534 115.772 32.4594C115.754 32.4648 115.683 32.4746 115.614 32.4798C115.324 32.4987 115.198 32.5153 115.123 32.5381C115.078 32.5517 114.974 32.5695 114.891 32.579C114.673 32.6036 113.786 32.8724 113.604 32.9688C113.532 33.0066 113.439 33.0485 113.397 33.061C113.358 33.073 113.282 33.1077 113.233 33.1384C113.181 33.1678 113.083 33.2251 113.015 33.2635C112.861 33.3495 112.727 33.4373 112.658 33.4936C112.63 33.5178 112.594 33.5405 112.58 33.5449C112.553 33.553 112.522 33.5759 112.391 33.6905C112.366 33.7118 112.282 33.7826 112.203 33.8457C112.127 33.9102 112.057 33.9706 112.049 33.9811C112.042 33.991 111.975 34.0605 111.899 34.1344C111.826 34.2079 111.755 34.2826 111.743 34.3019C111.733 34.3206 111.718 34.3369 111.711 34.339C111.706 34.3407 111.659 34.3941 111.608 34.4586C111.556 34.5238 111.507 34.5777 111.5 34.5799C111.494 34.5838 111.454 34.6351 111.414 34.6964C111.374 34.7559 111.303 34.858 111.258 34.9227C111.02 35.2622 110.699 35.9003 110.563 36.3075C110.546 36.3558 110.525 36.4111 110.515 36.4299C110.493 36.4721 110.352 36.9572 110.3 37.1657C110.257 37.34 110.196 37.7125 110.206 37.7449C110.209 37.7557 110.207 37.7938 110.2 37.8275C110.193 37.8648 110.204 37.9401 110.225 38.0163C110.262 38.1369 110.278 38.1654 110.41 38.3221C110.465 38.388 110.644 38.5759 110.709 38.6367C110.739 38.6649 110.789 38.7146 110.823 38.7477C110.968 38.8906 111.468 39.2895 111.645 39.403C111.735 39.4604 112.579 39.9145 112.694 39.9661C112.945 40.0828 113.324 40.2295 113.497 40.2774C113.662 40.3238 114.025 40.3945 114.163 40.408C114.3 40.4215 114.389 40.4319 114.453 40.442C114.486 40.4478 114.523 40.4483 114.536 40.4445C114.55 40.4401 114.591 40.4395 114.627 40.4441C114.688 40.4495 114.788 40.4506 115.016 40.4483C115.065 40.4473 115.172 40.4403 115.256 40.4327C115.34 40.425 115.45 40.4151 115.503 40.4107C115.603 40.4041 115.749 40.3738 116.224 40.2692C116.489 40.2102 116.557 40.1878 116.935 40.0339C117.47 39.8168 117.728 39.6892 118.16 39.4305C118.295 39.3504 118.565 39.178 118.652 39.1145C118.679 39.0962 118.723 39.0653 118.749 39.0495C118.798 39.017 118.843 38.9837 119.012 38.8518C119.059 38.8139 119.114 38.7738 119.132 38.7624C119.15 38.7511 119.188 38.7236 119.216 38.6994C119.316 38.6143 119.369 38.5706 119.493 38.47C119.562 38.4137 119.641 38.3506 119.666 38.3293C119.751 38.2562 120.577 37.4691 120.668 37.3747C120.717 37.3244 120.77 37.2688 120.787 37.252C120.804 37.2371 120.83 37.2075 120.847 37.1907C120.901 37.125 120.991 37.0229 121.023 36.9917C121.061 36.9547 121.25 36.7418 121.304 36.6785C121.325 36.6524 121.353 36.6222 121.365 36.6107C121.378 36.6009 121.41 36.5596 121.438 36.52C121.465 36.4821 121.494 36.4478 121.499 36.4462C121.505 36.4445 121.551 36.3912 121.604 36.326C121.655 36.2615 121.701 36.2081 121.706 36.2064C121.712 36.2048 121.739 36.1729 121.767 36.135C121.794 36.0953 121.828 36.0535 121.841 36.0378C121.915 35.9584 122.183 35.6157 122.346 35.3931C122.449 35.2539 122.547 35.1217 122.563 35.1013C122.62 35.0268 122.823 34.7411 122.835 34.7158C122.843 34.7018 122.888 34.6251 122.938 34.5451C123.098 34.2903 123.128 34.1787 123.067 34.0734Z" fill="#064082"/>
<path d="M102.805 46.6648C102.238 46.9444 101.717 47.6121 101.158 48.7535C100.381 50.3451 99.8447 52.1309 99.1454 55.5084C98.2675 59.7245 97.3818 62.9932 96.2786 66.1456C94.5772 70.975 92.3863 74.9814 89.939 77.7455C89.6593 78.0638 89.4263 78.3666 89.4263 78.421C89.4263 78.7082 90.4673 79.1663 91.5472 79.3527C93.5439 79.7021 95.9135 79.011 97.9257 77.4815C98.353 77.1631 98.7492 76.8992 98.8036 76.8992C98.9823 76.8992 99.0522 77.1787 99.0056 77.761C98.8735 79.5856 99.969 81.8916 101.966 83.9492C102.774 84.7877 103.1 85.0129 103.38 84.943C103.62 84.8809 104.677 83.8793 105.275 83.1494C106.837 81.2394 107.645 79.2362 107.497 77.629C107.458 77.1942 107.474 77.0544 107.559 76.9846C107.699 76.8681 107.839 76.9302 108.554 77.4737C109.657 78.32 110.916 78.9334 112.151 79.244C113.068 79.4691 114.521 79.4847 115.375 79.2828C116.02 79.1275 116.921 78.716 117.038 78.5219C117.1 78.4132 116.96 78.2113 116.37 77.5125C112.337 72.7297 109.572 66.0213 107.412 55.7802C106.829 53.0161 106.627 52.2086 106.114 50.6557C105.337 48.2721 104.374 46.8201 103.372 46.5096C103.271 46.4785 103.053 46.5406 102.805 46.6648Z" fill="#064082"/>
</svg>
