<svg width="25" height="25" viewBox="0 0 25 25" fill="none" xmlns="http://www.w3.org/2000/svg">
<circle cx="12.5" cy="12.5" r="12.5" fill="#6CA6E9"/>
<path d="M13.0605 18.2837H18.2844H13.0605Z" fill="#6CA6E9"/>
<path d="M13.0605 18.2837H18.2844" stroke="black" stroke-linecap="round" stroke-linejoin="round"/>
<path d="M14.5527 8.2085L16.7915 10.4473L14.5527 8.2085Z" fill="#6CA6E9"/>
<path d="M14.5527 8.2085L16.7915 10.4473" stroke="black" stroke-linecap="round" stroke-linejoin="round"/>
<path d="M18.4901 9.1127C18.8354 8.76754 19.0294 8.29937 19.0294 7.81117C19.0295 7.32298 18.8356 6.85476 18.4905 6.50952C18.1453 6.16427 17.6771 5.97028 17.189 5.97021C16.7008 5.97015 16.2326 6.16403 15.8873 6.50919L7.17249 15.2261C7.02088 15.3773 6.90876 15.5634 6.846 15.7681L5.9834 18.6099C5.96652 18.6664 5.96525 18.7264 5.97971 18.7835C5.99417 18.8407 6.02383 18.8928 6.06554 18.9345C6.10725 18.9761 6.15946 19.0057 6.21662 19.0201C6.27378 19.0344 6.33376 19.0331 6.39021 19.0161L9.23268 18.1541C9.43718 18.0919 9.62328 17.9805 9.77466 17.8296L18.4901 9.1127Z" fill="#6CA6E9" stroke="black" stroke-linecap="round" stroke-linejoin="round"/>
</svg>
